<svg width="33" height="31" viewBox="0 0 33 31" fill="none" xmlns="http://www.w3.org/2000/svg">
<g id="SVG" clip-path="url(#clip0_1_2372)">
<path id="Vector" d="M6 21.5H9" stroke="#323232" stroke-width="1.5" stroke-linecap="round" stroke-linejoin="round"/>
<path id="Vector_2" d="M18 26H4.5C2.8425 26 1.5 24.6575 1.5 23V8.8535C1.5 8.4485 1.5825 8.0465 1.7415 7.6745L3.3885 3.821C3.861 2.717 4.9455 2 6.147 2H20.853C22.0545 2 23.139 2.717 23.6115 3.821L25.2585 7.6745C25.4175 8.048 25.5 8.4485 25.5 8.8535V14.15" stroke="#323232" stroke-width="1.5" stroke-linecap="round" stroke-linejoin="round"/>
<path id="Vector_3" d="M13.5 2V8.66" stroke="#323232" stroke-width="1.5" stroke-linecap="round" stroke-linejoin="round"/>
<path id="Vector_4" d="M25.485 8.65991H1.5" stroke="#323232" stroke-width="1.5" stroke-linecap="round" stroke-linejoin="round"/>
<path id="Vector_5" d="M29.3033 16.1967C32.2322 19.1256 32.2322 23.8744 29.3033 26.8033C26.3744 29.7322 21.6256 29.7322 18.6967 26.8033C15.7678 23.8744 15.7678 19.1256 18.6967 16.1967C21.6256 13.2678 26.3744 13.2678 29.3033 16.1967Z" stroke="#323232" stroke-width="1.5" stroke-linecap="round" stroke-linejoin="round"/>
<path id="Vector_6" d="M27.333 19.8335L23.166 24.0005L20.667 21.5" stroke="#323232" stroke-width="1.5" stroke-linecap="round" stroke-linejoin="round"/>
</g>
<defs>
<clipPath id="clip0_1_2372">
<rect width="32" height="30" fill="white" transform="translate(0.5 0.5)"/>
</clipPath>
</defs>
</svg>
