<svg width="31" height="31" viewBox="0 0 31 31" fill="none" xmlns="http://www.w3.org/2000/svg">
<g id="SVG">
<path id="Vector" fill-rule="evenodd" clip-rule="evenodd" d="M25.9473 22.415L24.1878 20.6555C23.3088 19.7765 21.8838 19.7765 21.0063 20.6555L19.6233 22.0385C19.3143 22.3475 18.8463 22.451 18.4473 22.2755C16.4433 21.398 14.4633 20.0675 12.6978 18.302C10.9398 16.544 9.61379 14.573 8.73479 12.5765C8.55179 12.164 8.65829 11.6795 8.97779 11.36L10.2168 10.121C11.2233 9.11445 11.2233 7.69095 10.3443 6.81195L8.58479 5.05245C7.41329 3.88095 5.51429 3.88095 4.34279 5.05245L3.36479 6.02895C2.25329 7.14045 1.78979 8.74395 2.08979 10.334C2.83079 14.2535 5.10779 18.545 8.78129 22.2185C12.4548 25.892 16.7463 28.169 20.6658 28.91C22.2558 29.21 23.8593 28.7465 24.9708 27.635L25.9473 26.6585C27.1188 25.487 27.1188 23.588 25.9473 22.415Z" stroke="black" stroke-width="1.5" stroke-linecap="round" stroke-linejoin="round"/>
<path id="Vector_2" d="M17 7.98688C18.5465 7.96588 20.1005 8.53889 21.281 9.71939" stroke="black" stroke-width="1.5" stroke-linecap="round" stroke-linejoin="round"/>
<path id="Vector_3" d="M25.523 5.4768C23.1695 3.1233 20.084 1.9458 17 1.9458" stroke="black" stroke-width="1.5" stroke-linecap="round" stroke-linejoin="round"/>
<path id="Vector_4" d="M23.0133 13.9998C23.0343 12.4533 22.4613 10.8993 21.2808 9.71875" stroke="black" stroke-width="1.5" stroke-linecap="round" stroke-linejoin="round"/>
<path id="Vector_5" d="M25.5229 5.47681C27.8764 7.83031 29.0539 10.9158 29.0539 13.9998" stroke="black" stroke-width="1.5" stroke-linecap="round" stroke-linejoin="round"/>
</g>
</svg>
